# xmcd
#
# Track frame offsets:
#	150
#	22770
#	44237
#	60987
#	82657
#	101450
#	125222
#	146155
#	162400
#	183715
#	201837
#	220372
#	244335
#	262735
#	286560
#	312795
#
# Disc length: 4444
#
# Revision: 2
# Processed by: cddbd v1.5.1PL0 Copyright (c) Steve Scherf et al.
# Submitted via: CDCOPY 4.744
# Normalized: r1:DSETVAR1,TDELIM( - )
#
DISCID=e3115a10
DTITLE=Various Artist - 15 anni di Radio Italia Solo Musica Italiana - CD2
DYEAR=1900
DGENRE=
TTITLE0=Marco Masini - T'innamorerai
TTITLE1=Mina - Non c'è più audio
TTITLE2=Gianni Morandi - Banane e lampone
TTITLE3=Anna Oxa - Tutti i brividi del mondo
TTITLE4=Laura Pausini - Strani amori
TTITLE5=Pooh - La donna del mio amico
TTITLE6=Raf - Sei la più bella del mondo
TTITLE7=Eros Ramazzotti - Cuori agitati
TTITLE8=Vasco Rossi - Nessun pericolo per te
TTITLE9=Enrico Ruggeri - Mistero
TTITLE10=Spagna - Gente come noi
TTITLE11=Umberto Tozzi - Gli altri siamo noi
TTITLE12=Roberto Vecchioni - Voglia una donna
TTITLE13=Antonello Venditti - Miraggi
TTITLE14=Renato Zero - Nei giardini che nessuno sa
TTITLE15=Zucchero - Ridammi il sole
EXTD=
EXTT0=
EXTT1=
EXTT2=
EXTT3=
EXTT4=
EXTT5=
EXTT6=
EXTT7=
EXTT8=
EXTT9=
EXTT10=
EXTT11=
EXTT12=
EXTT13=
EXTT14=
EXTT15=
PLAYORDER=
